<svg xmlns="http://www.w3.org/2000/svg" viewBox="0 0 1200 120" width="100%" height="100%">
  <defs>
    <filter id="grain">
      <feTurbulence type="fractalNoise" baseFrequency="0.8" numOctaves="2" stitchTiles="stitch"/>
      <feColorMatrix type="matrix" values="1 0 0 0 0, 0 1 0 0 0, 0 0 1 0 0, 0 0 0 0.04 0" />
    </filter>
  </defs>

  <rect width="1200" height="120" fill="transparent" />
  
  <g transform="translate(0, 60)">
    <!-- Base smooth lines -->
    <path d="M-100,-10 C 200,-50 400,60 600,0 C 800,-60 1000,50 1300,10" fill="none" stroke="#DED8CF" stroke-width="2" opacity="0.6">
      <animate attributeName="d" values="M-100,-10 C 200,-50 400,60 600,0 C 800,-60 1000,50 1300,10; M-100,10 C 200,50 400,-60 600,0 C 800,60 1000,-50 1300,-10; M-100,-10 C 200,-50 400,60 600,0 C 800,-60 1000,50 1300,10" dur="15s" repeatCount="indefinite" />
    </path>
    <path d="M-100,20 C 300,80 500,-40 600,0 C 700,40 900,-80 1300,-20" fill="none" stroke="#E6DCCD" stroke-width="1.5" opacity="0.4">
      <animate attributeName="d" values="M-100,20 C 300,80 500,-40 600,0 C 700,40 900,-80 1300,-20; M-100,-20 C 300,-80 500,40 600,0 C 700,-40 900,80 1300,20; M-100,20 C 300,80 500,-40 600,0 C 700,40 900,-80 1300,-20" dur="20s" repeatCount="indefinite" />
    </path>
    
    <!-- Botanical Motif 1 (Moss) -->
    <g transform="translate(450, 0)">
      <animateTransform attributeName="transform" type="translate" values="450,0; 450,-10; 450,0" dur="8s" repeatCount="indefinite" />
      <path d="M0,0 C10,-20 30,-20 30,0 C30,20 10,20 0,0 Z" fill="#5D7052" opacity="0.5" />
    </g>

    <!-- Botanical Motif 2 (Terracotta) -->
    <g transform="translate(750, 0) scale(0.8)">
      <animateTransform attributeName="transform" type="translate" values="750,0; 750,15; 750,0" dur="10s" repeatCount="indefinite" />
      <path d="M0,0 C-12,-15 -30,-10 -20,5 C-10,20 12,15 0,0 Z" fill="#C18C5D" opacity="0.6" />
    </g>

    <!-- Particle dots -->
    <circle cx="300" cy="-20" r="4" fill="#5D7052" opacity="0">
      <animate attributeName="opacity" values="0;0.7;0" dur="6s" repeatCount="indefinite" begin="1s" />
      <animate attributeName="cy" values="-20;-30;-20" dur="6s" repeatCount="indefinite" begin="1s" />
    </circle>
    
    <circle cx="900" cy="20" r="3" fill="#C18C5D" opacity="0">
      <animate attributeName="opacity" values="0;0.8;0" dur="8s" repeatCount="indefinite" begin="3s" />
      <animate attributeName="cy" values="20;10;20" dur="8s" repeatCount="indefinite" begin="3s" />
    </circle>

  </g>
  
  <rect width="1200" height="120" fill="transparent" filter="url(#grain)" opacity="0.8" pointer-events="none" />
</svg>
